<svg xmlns="http://www.w3.org/2000/svg" viewBox="0 0 24 24" fill="currentColor">
  <path d="M12.158 12.786L9.46 20.625c.806.237 1.657.366 2.54.366 1.047 0 2.051-.181 2.986-.51a.476.476 0 0 1-.024-.036l-2.804-7.659zm6.501-4.21c0-.984-.353-1.666-.656-2.197-.404-.656-.781-1.212-.781-1.868 0-.732.556-1.414 1.339-1.414.035 0 .069.004.103.006A9.961 9.961 0 0 0 12 2.001C9.176 2.001 6.635 3.255 4.93 5.277c.277.009.537.015.759.015 1.232 0 3.141-.15 3.141-.15.635-.037.71.896.075.972 0 0-.639.075-1.349.112l4.29 12.759 2.578-7.733-1.834-5.026c-.635-.037-1.236-.112-1.236-.112-.635-.037-.561-1.009.075-.972 0 0 1.947.15 3.105.15 1.232 0 3.141-.15 3.141-.15.635-.037.71.896.075.972 0 0-.639.075-1.349.112l4.259 12.67 1.176-3.927c.509-1.629.896-2.799.896-3.807zm-9.75 1.321L4.93 19.361a9.996 9.996 0 0 0 6.167 2.638c.769 0 1.512-.09 2.222-.256l-.098-.189-4.512-11.647zm11.044-3.572c.034.254.053.525.053.818 0 .808-.151 1.717-.605 2.854l-2.432 7.033a9.996 9.996 0 0 0 4.847-13.27c-.052.198-.108.394-.168.589l-.695 1.976zM12 0C5.373 0 0 5.373 0 12s5.373 12 12 12 12-5.373 12-12S18.627 0 12 0z"/>
</svg>
